<svg width="20" height="24" viewBox="0 0 20 24" fill="none" xmlns="http://www.w3.org/2000/svg">
<g clip-path="url(#clip0_1_29)">
<path d="M0 21C0 22.1682 0.894887 23.0769 2.04545 23.0769H17.0455C18.1534 23.0769 19.0909 22.1682 19.0909 21V9.23076H0V21ZM13.6364 12.5192C13.6364 12.2596 13.8494 12 14.1477 12H15.8523C16.108 12 16.3636 12.2596 16.3636 12.5192V14.25C16.3636 14.5529 16.108 14.7692 15.8523 14.7692H14.1477C13.8494 14.7692 13.6364 14.5529 13.6364 14.25V12.5192ZM13.6364 18.0577C13.6364 17.7981 13.8494 17.5384 14.1477 17.5384H15.8523C16.108 17.5384 16.3636 17.7981 16.3636 18.0577V19.7885C16.3636 20.0913 16.108 20.3077 15.8523 20.3077H14.1477C13.8494 20.3077 13.6364 20.0913 13.6364 19.7885V18.0577ZM8.18182 12.5192C8.18182 12.2596 8.39489 12 8.69318 12H10.3977C10.6534 12 10.9091 12.2596 10.9091 12.5192V14.25C10.9091 14.5529 10.6534 14.7692 10.3977 14.7692H8.69318C8.39489 14.7692 8.18182 14.5529 8.18182 14.25V12.5192ZM8.18182 18.0577C8.18182 17.7981 8.39489 17.5384 8.69318 17.5384H10.3977C10.6534 17.5384 10.9091 17.7981 10.9091 18.0577V19.7885C10.9091 20.0913 10.6534 20.3077 10.3977 20.3077H8.69318C8.39489 20.3077 8.18182 20.0913 8.18182 19.7885V18.0577ZM2.72727 12.5192C2.72727 12.2596 2.94035 12 3.23864 12H4.94318C5.19887 12 5.45455 12.2596 5.45455 12.5192V14.25C5.45455 14.5529 5.19887 14.7692 4.94318 14.7692H3.23864C2.94035 14.7692 2.72727 14.5529 2.72727 14.25V12.5192ZM2.72727 18.0577C2.72727 17.7981 2.94035 17.5384 3.23864 17.5384H4.94318C5.19887 17.5384 5.45455 17.7981 5.45455 18.0577V19.7885C5.45455 20.0913 5.19887 20.3077 4.94318 20.3077H3.23864C2.94035 20.3077 2.72727 20.0913 2.72727 19.7885V18.0577ZM17.0455 3.6923H15V1.61537C15 1.26922 14.6591 0.923065 14.3182 0.923065H12.9545C12.571 0.923065 12.2727 1.26922 12.2727 1.61537V3.6923H6.81818V1.61537C6.81818 1.26922 6.47727 0.923065 6.13636 0.923065H4.77273C4.3892 0.923065 4.09091 1.26922 4.09091 1.61537V3.6923H2.04545C0.894887 3.6923 0 4.64421 0 5.76922V7.84614H19.0909V5.76922C19.0909 4.64421 18.1534 3.6923 17.0455 3.6923Z" fill="black"/>
</g>
<defs>
<clipPath id="clip0_1_29">
<rect width="20" height="24" fill="white"/>
</clipPath>
</defs>
</svg>
