<svg width="14" height="19" viewBox="0 0 14 19" fill="none" xmlns="http://www.w3.org/2000/svg">
<path d="M6.26472 18.6107C6.59252 19.1298 7.3574 19.1298 7.68521 18.6107C13.0029 10.8253 13.9864 10.0098 13.9864 7.11805C13.9864 3.1883 10.854 0 6.99317 0C3.09593 0 0 3.1883 0 7.11805C0 10.0098 0.946988 10.8253 6.26472 18.6107ZM6.99317 10.0839C5.35415 10.0839 4.07935 8.78634 4.07935 7.11805C4.07935 5.48683 5.35415 4.15219 6.99317 4.15219C8.59578 4.15219 9.90696 5.48683 9.90696 7.11805C9.90696 8.78634 8.59578 10.0839 6.99317 10.0839Z" fill="white"/>
</svg>
