<svg width="18" height="13" viewBox="0 0 18 13" fill="none" xmlns="http://www.w3.org/2000/svg">
<g clip-path="url(#clip0_1_31)">
<path d="M12.0833 8.15868C15.625 5.65351 16.6319 4.90872 17.4305 4.29934C17.5695 4.19778 17.7778 4.29934 17.7778 4.46861V11.3749C17.7778 12.2889 17.0139 12.9999 16.1111 12.9999H1.66667C0.729167 12.9999 0 12.2889 0 11.3749V4.46861C0 4.29934 0.173611 4.19778 0.3125 4.29934C1.11111 4.90872 2.11805 5.65351 5.65972 8.15868C5.77999 8.24247 5.91442 8.34283 6.06069 8.45196C6.8012 9.00466 7.84507 9.78368 8.88887 9.78368C9.9454 9.78368 11.0543 8.9394 11.7823 8.38514C11.8918 8.30181 11.9926 8.22505 12.0833 8.15868Z" fill="white"/>
<path d="M8.97548 9.78427L8.97874 9.78186C8.97708 9.78193 8.97548 9.78199 8.97388 9.78206L8.97548 9.78427Z" fill="white"/>
<path d="M11.0202 7.57458C10.3983 8.04206 9.53127 8.69388 8.88887 8.66665C8.21473 8.69408 7.33607 8.03459 6.71247 7.56659C6.56523 7.45609 6.4322 7.35625 6.31945 7.27864C2.0827 4.29699 1.44063 3.79436 0.559121 3.10428C0.479785 3.04217 0.39851 2.97855 0.3125 2.91146C0.104167 2.77604 0 2.53906 0 2.26823V1.625C0 0.74479 0.729167 0 1.66667 0H16.1111C17.0139 0 17.7778 0.74479 17.7778 1.625V2.26823C17.7778 2.53906 17.6389 2.77604 17.4305 2.91146C17.3445 2.97853 17.2633 3.04214 17.184 3.10423C16.3025 3.7943 15.6603 4.29699 11.4236 7.27864C11.3081 7.35813 11.1714 7.4609 11.0202 7.57458Z" fill="white"/>
</g>
<defs>
<clipPath id="clip0_1_31">
<rect width="18" height="13" fill="white"/>
</clipPath>
</defs>
</svg>
