<svg width="27" height="104" viewBox="0 0 27 104" fill="none" xmlns="http://www.w3.org/2000/svg">
<path d="M48.1954 19.8121V83.7484C48.1954 90.4474 48.1954 93.797 46.8378 96.1252C45.5951 98.2561 43.6075 99.8483 41.2601 100.593C38.6953 101.407 35.436 100.669 28.9176 99.1914L14.8116 95.9946C10.4641 95.0092 8.29026 94.5166 6.66082 93.3501C5.16147 92.2769 3.98942 90.8068 3.27571 89.1041C2.50006 87.2537 2.50006 85.0196 2.50006 80.5516V23.0089C2.50006 18.5408 2.50006 16.3068 3.27571 14.4565C3.98942 12.7538 5.16147 11.2836 6.66082 10.2103C8.29025 9.04392 10.464 8.55126 14.8116 7.56598L28.9176 4.36909C35.436 2.89182 38.6953 2.15318 41.2601 2.96722C43.6075 3.71223 45.5951 5.30452 46.8378 7.43531C48.1954 9.7636 48.1954 13.1131 48.1954 19.8121Z" fill="#3D3D3D" stroke="url(#paint0_linear_13_9)" stroke-width="2.38411"/>
<path d="M13.3759 30.8616V72.684" stroke="white" stroke-width="2.38411" stroke-linecap="round"/>
<defs>
<linearGradient id="paint0_linear_13_9" x1="48.1954" y1="102.224" x2="47.6615" y2="-0.00144051" gradientUnits="userSpaceOnUse">
<stop stop-color="#FFDD00"/>
<stop offset="1" stop-color="#F48120"/>
</linearGradient>
</defs>
</svg>
