<svg width="20" height="20" viewBox="0 0 20 20" fill="none" xmlns="http://www.w3.org/2000/svg">
<g clip-path="url(#clip0_2_21)">
<path d="M9.7806 0C9.23804 0 8.71779 0.215502 8.33419 0.5991C7.9506 0.982696 7.73511 1.50297 7.73511 2.04546C7.73511 2.58794 7.9506 3.10822 8.33419 3.49181C8.71779 3.87541 9.23804 4.09091 9.7806 4.09091C10.3231 4.09091 10.8433 3.87541 11.2269 3.49181C11.6105 3.10822 11.826 2.58794 11.826 2.04546C11.826 1.50297 11.6105 0.982696 11.2269 0.5991C10.8433 0.215502 10.3231 0 9.7806 0Z" fill="white"/>
<path d="M7.9624 5C6.58149 5 5.4624 6.11909 5.4624 7.5V13.1818C5.4624 13.6841 5.86922 14.0909 6.37149 14.0909C6.87376 14.0909 7.28058 13.6841 7.28058 13.1818V8.6364C7.28058 8.38544 7.48422 8.18184 7.73513 8.18184C7.98603 8.18184 8.18966 8.38544 8.18966 8.6364V12.2727H11.3715V8.6364C11.3715 8.38544 11.5751 8.18184 11.8261 8.18184C12.0769 8.18184 12.2806 8.38544 12.2806 8.6364V13.1818C12.2806 13.6841 12.6874 14.0909 13.1897 14.0909C13.692 14.0909 14.0988 13.6841 14.0988 13.1818V7.5C14.0988 6.11909 12.9797 5 11.5988 5H7.9624Z" fill="white"/>
<path d="M8.1897 13.1819C8.1897 14.0627 7.55938 14.7986 6.72665 14.9645L5.94274 18.6257C5.92546 18.7057 5.91699 18.7851 5.91699 18.8636C5.91654 19.3882 6.28179 19.8602 6.81543 19.9743C6.89588 19.9915 6.97604 20 7.05513 20C7.57922 20 8.05034 19.6347 8.16482 19.1016L9.23818 14.0909H10.3231L11.3973 19.1016C11.5114 19.6347 11.982 20 12.5061 20C12.5847 20 12.6659 19.9915 12.7459 19.9743C13.2795 19.8602 13.6439 19.3882 13.6434 18.8636C13.6439 18.7851 13.6358 18.7057 13.6185 18.6257L12.8346 14.9645C12.0019 14.7986 11.3715 14.0627 11.3715 13.1819H8.1897Z" fill="white"/>
<path d="M1.04399 9.22264C1.12788 9.13624 1.24261 9.08664 1.36301 9.0848C1.42382 9.08384 1.4842 9.09504 1.54058 9.11792C1.59697 9.14072 1.64819 9.17456 1.69124 9.21752C1.73429 9.26048 1.76828 9.31168 1.79119 9.368C1.81411 9.42432 1.82549 9.48472 1.82466 9.54552V12.6554C1.83277 12.7045 1.83277 12.7546 1.82466 12.8037V15.9092C1.8255 15.9694 1.81438 16.0292 1.79192 16.0851C1.76946 16.141 1.73611 16.1918 1.69382 16.2347C1.65153 16.2777 1.60113 16.3117 1.54556 16.335C1.48998 16.3582 1.43035 16.3702 1.37011 16.3702C1.30987 16.3702 1.25023 16.3582 1.19466 16.335C1.13909 16.3117 1.0887 16.2777 1.0464 16.2347C1.00411 16.1918 0.97076 16.141 0.948304 16.0851C0.92584 16.0292 0.914712 15.9694 0.915568 15.9092V13.1819H0.461019C0.400786 13.1827 0.340986 13.1716 0.28509 13.1491C0.229196 13.1267 0.178322 13.0934 0.135427 13.051C0.092532 13.0088 0.0584702 12.9584 0.0352213 12.9028C0.0119723 12.8472 0 12.7876 0 12.7274C0 12.6671 0.0119723 12.6074 0.0352213 12.5519C0.0584702 12.4963 0.092532 12.4459 0.135427 12.4036C0.178322 12.3614 0.229196 12.328 0.28509 12.3055C0.340986 12.283 0.400786 12.2719 0.461019 12.2728H0.915568V9.54552C0.91392 9.42512 0.960104 9.30896 1.04399 9.22264Z" fill="#00A0F0"/>
<path d="M2.86212 9.22264C2.946 9.13624 3.06074 9.08664 3.18114 9.0848C3.24194 9.08384 3.30233 9.09504 3.35871 9.11792C3.41509 9.14072 3.46632 9.17456 3.50937 9.21752C3.55242 9.26048 3.5864 9.31168 3.60932 9.368C3.63223 9.42432 3.64362 9.48472 3.64278 9.54552V12.2728H4.55187V13.1819H3.64278V15.9092C3.64363 15.9694 3.6325 16.0292 3.61005 16.0851C3.58758 16.141 3.55424 16.1918 3.51194 16.2347C3.46966 16.2777 3.41926 16.3117 3.36369 16.335C3.30811 16.3582 3.24847 16.3702 3.18824 16.3702C3.128 16.3702 3.06836 16.3582 3.01279 16.335C2.95722 16.3117 2.90682 16.2777 2.86453 16.2347C2.82223 16.1918 2.78889 16.141 2.76642 16.0851C2.74397 16.0292 2.73284 15.9694 2.73369 15.9092V9.54552C2.73204 9.42512 2.77823 9.30896 2.86212 9.22264Z" fill="#00A0F0"/>
<path d="M16.0441 9.22264C16.128 9.13624 16.2428 9.08664 16.3632 9.0848C16.424 9.08384 16.4844 9.09504 16.5407 9.11792C16.5971 9.14072 16.6483 9.17456 16.6914 9.21752C16.7344 9.26048 16.7684 9.31168 16.7913 9.368C16.8142 9.42432 16.8256 9.48472 16.8248 9.54552V15.9092C16.8256 15.9694 16.8145 16.0292 16.792 16.0851C16.7696 16.141 16.7362 16.1918 16.694 16.2347C16.6516 16.2777 16.6012 16.3117 16.5457 16.335C16.4901 16.3582 16.4304 16.3702 16.3702 16.3702C16.31 16.3702 16.2504 16.3582 16.1948 16.335C16.1392 16.3117 16.0888 16.2777 16.0465 16.2347C16.0042 16.1918 15.9709 16.141 15.9484 16.0851C15.926 16.0292 15.9148 15.9694 15.9157 15.9092V13.1819H15.0066V12.2728H15.9157V9.54552C15.914 9.42512 15.9602 9.30896 16.0441 9.22264Z" fill="#00A0F0"/>
<path d="M17.8621 9.22264C17.946 9.13624 18.0607 9.08664 18.1811 9.0848C18.2419 9.08384 18.3023 9.09504 18.3587 9.11792C18.415 9.14072 18.4663 9.17456 18.5093 9.21752C18.5524 9.26048 18.5864 9.31168 18.6093 9.368C18.6322 9.42432 18.6436 9.48472 18.6428 9.54552V12.2728H19.0973C19.1575 12.2719 19.2173 12.283 19.2732 12.3055C19.3291 12.328 19.38 12.3614 19.4229 12.4036C19.4657 12.4459 19.4998 12.4963 19.5231 12.5519C19.5463 12.6074 19.5583 12.6671 19.5583 12.7274C19.5583 12.7876 19.5463 12.8472 19.5231 12.9028C19.4998 12.9584 19.4657 13.0088 19.4229 13.051C19.38 13.0934 19.3291 13.1267 19.2732 13.1491C19.2173 13.1716 19.1575 13.1827 19.0973 13.1819H18.6428V15.9092C18.6436 15.9694 18.6325 16.0292 18.61 16.0851C18.5876 16.141 18.5542 16.1918 18.5119 16.2347C18.4696 16.2777 18.4192 16.3117 18.3637 16.335C18.3081 16.3582 18.2485 16.3702 18.1882 16.3702C18.128 16.3702 18.0683 16.3582 18.0128 16.335C17.9572 16.3117 17.9068 16.2777 17.8645 16.2347C17.8222 16.1918 17.7889 16.141 17.7664 16.0851C17.7439 16.0292 17.7328 15.9694 17.7337 15.9092V12.7993C17.7255 12.7502 17.7255 12.7001 17.7337 12.651V9.54552C17.732 9.42512 17.7782 9.30896 17.8621 9.22264Z" fill="#00A0F0"/>
</g>
<defs>
<clipPath id="clip0_2_21">
<rect width="20" height="20" fill="white"/>
</clipPath>
</defs>
</svg>
