<svg width="29" height="20" viewBox="0 0 29 20" fill="none" xmlns="http://www.w3.org/2000/svg">
<g clip-path="url(#clip0_5_39)">
<path d="M14.2855 10C17.0087 10 19.2855 7.76786 19.2855 5C19.2855 2.27679 17.0087 0 14.2855 0C11.5177 0 9.28552 2.27679 9.28552 5C9.28552 7.76786 11.5177 10 14.2855 10Z" fill="white"/>
<path d="M17.6784 11.4287H17.3212C16.3837 11.8751 15.357 12.143 14.2855 12.143C13.1695 12.143 12.1427 11.8751 11.2052 11.4287H10.848C7.99089 11.4287 5.71411 13.7501 5.71411 16.6072V17.8572C5.71411 19.0626 6.65161 20.0001 7.85696 20.0001H20.7141C21.8748 20.0001 22.857 19.0626 22.857 17.8572V16.6072C22.857 13.7501 20.5355 11.4287 17.6784 11.4287Z" fill="white"/>
<path d="M4.28573 8.0949C5.84823 8.0949 7.14288 6.84491 7.14288 5.23776C7.14288 3.67526 5.84823 2.38062 4.28573 2.38062C2.67859 2.38062 1.42859 3.67526 1.42859 5.23776C1.42859 6.84491 2.67859 8.0949 4.28573 8.0949Z" fill="white"/>
<path d="M24.2857 8.0949C25.8482 8.0949 27.1429 6.84491 27.1429 5.23776C27.1429 3.67526 25.8482 2.38062 24.2857 2.38062C22.6786 2.38062 21.4286 3.67526 21.4286 5.23776C21.4286 6.84491 22.6786 8.0949 24.2857 8.0949Z" fill="white"/>
<path d="M22.8571 9.52344C22.0536 9.52344 21.3393 9.88058 20.8036 10.3717C22.6339 11.3538 23.8839 13.1395 24.1964 15.2377H27.1429C27.9018 15.2377 28.5714 14.6127 28.5714 13.8092V12.3806C28.5714 10.8181 27.2768 9.52344 25.7143 9.52344H22.8571Z" fill="white"/>
<path d="M7.72321 10.3717C7.1875 9.88058 6.47321 9.52344 5.71429 9.52344H2.85714C1.25 9.52344 0 10.8181 0 12.3806V13.8092C0 14.6127 0.625 15.2377 1.42857 15.2377H4.33036C4.64286 13.1395 5.89286 11.3538 7.72321 10.3717Z" fill="white"/>
</g>
<defs>
<clipPath id="clip0_5_39">
<rect width="29" height="20" fill="white"/>
</clipPath>
</defs>
</svg>
