<svg width="38" height="46" viewBox="0 0 38 46" fill="none" xmlns="http://www.w3.org/2000/svg">
<g filter="url(#filter0_d_5_37)">
<path d="M23.125 8.25C24.9531 8.25 26.5 6.77343 26.5 4.875C26.5 3.04686 24.9531 1.5 23.125 1.5C21.2266 1.5 19.75 3.04686 19.75 4.875C19.75 6.77343 21.2266 8.25 23.125 8.25ZM11.9453 23.8594L10.8906 26.25H6.25C4.98438 26.25 4 27.3047 4 28.5C4 29.7656 4.98438 30.75 6.25 30.75H11.6641C13 30.75 14.2656 29.9766 14.7578 28.7109L15.3906 27.3047L14.6172 26.8828C13.4219 26.1094 12.5078 25.0547 11.9453 23.8594ZM31 17.25H27.8359L26.0078 13.5234C25.1641 11.7656 23.5469 10.4297 21.7188 9.9375L16.7266 8.46093C14.6875 7.96875 12.6484 8.46093 11.0312 9.65625L8.21875 11.8359C7.23436 12.5391 7.02343 14.0156 7.79686 15C8.57032 15.9844 9.97657 16.125 10.9609 15.3516L13.7734 13.2422C14.2656 12.8203 14.9688 12.6797 15.5312 12.8203L16.5859 13.1016L13.9141 19.2891C13.0703 21.3281 13.8438 23.7891 15.7422 24.9141L21.7188 28.4297L19.8203 34.6173C19.4687 35.8125 20.1016 37.0782 21.2969 37.4298C21.5078 37.5 21.7188 37.5 22 37.5C22.9141 37.5 23.8281 36.9375 24.1094 35.9532L26.3594 28.8516C26.7813 27.375 26.1484 25.8281 24.8125 25.0547L20.5234 22.4531L22.7031 16.9688L24.1094 19.9219C24.6719 21.0469 25.8672 21.75 27.2031 21.75H31C32.1953 21.75 33.25 20.7656 33.25 19.5C33.25 18.3047 32.1953 17.25 31 17.25Z" fill="white"/>
</g>
<defs>
<filter id="filter0_d_5_37" x="0" y="0" width="38" height="47" filterUnits="userSpaceOnUse" color-interpolation-filters="sRGB">
<feFlood flood-opacity="0" result="BackgroundImageFix"/>
<feColorMatrix in="SourceAlpha" type="matrix" values="0 0 0 0 0 0 0 0 0 0 0 0 0 0 0 0 0 0 127 0" result="hardAlpha"/>
<feOffset dy="4"/>
<feGaussianBlur stdDeviation="2"/>
<feComposite in2="hardAlpha" operator="out"/>
<feColorMatrix type="matrix" values="0 0 0 0 0 0 0 0 0 0 0 0 0 0 0 0 0 0 0.25 0"/>
<feBlend mode="normal" in2="BackgroundImageFix" result="effect1_dropShadow_5_37"/>
<feBlend mode="normal" in="SourceGraphic" in2="effect1_dropShadow_5_37" result="shape"/>
</filter>
</defs>
</svg>
