<svg width="15" height="20" viewBox="0 0 15 20" fill="none" xmlns="http://www.w3.org/2000/svg">
<g clip-path="url(#clip0_6_94)">
<path d="M6.7122 19.5902C7.06341 20.1366 7.88293 20.1366 8.23415 19.5902C13.9317 11.3951 14.9854 10.5366 14.9854 7.49268C14.9854 3.3561 11.6293 0 7.49268 0C3.31707 0 0 3.3561 0 7.49268C0 10.5366 1.01463 11.3951 6.7122 19.5902ZM7.49268 10.6146C5.73659 10.6146 4.37073 9.24878 4.37073 7.49268C4.37073 5.77561 5.73659 4.37073 7.49268 4.37073C9.20976 4.37073 10.6146 5.77561 10.6146 7.49268C10.6146 9.24878 9.20976 10.6146 7.49268 10.6146Z" fill="white"/>
</g>
<defs>
<clipPath id="clip0_6_94">
<rect width="15" height="20" fill="white"/>
</clipPath>
</defs>
</svg>
